# Blender 3.5.1
# www.blender.org
mtllib column.mtl
o Column_Fallen
v 0.352162 -0.299105 -0.505440
v -2.022629 -1.163459 -0.505440
v 0.352162 -0.299105 0.505440
v -2.022629 -1.163459 0.505440
v 0.006421 0.650811 -0.505440
v -2.368371 -0.213542 -0.505440
v 0.006421 0.650811 0.505440
v -2.368370 -0.213542 0.505440
v -2.195500 -0.688501 -0.702000
v 0.179292 0.175853 0.702000
v -2.195500 -0.688501 0.702000
v 0.179291 0.175853 -0.702000
v -2.435598 -0.028836 0.000000
v 0.419390 -0.483812 -0.000000
v -0.060807 0.835517 -0.000000
v -1.955401 -1.348165 0.000000
v -2.250053 -1.365763 -0.617760
v 0.669103 -0.303277 -0.617760
v 0.595807 -0.329955 -0.617760
v 0.595807 -0.329955 0.617760
v 0.173234 0.831054 -0.617760
v 0.173234 0.831054 0.617760
v 0.384521 0.250550 0.858000
v 0.384520 0.250550 -0.858000
v 0.677974 -0.555706 -0.000000
v 0.091067 1.056806 -0.000000
v -2.176757 -1.339085 -0.617760
v 0.669103 -0.303277 0.617760
v 0.246530 0.857732 -0.617760
v 0.246530 0.857732 0.617760
v 0.457817 0.277227 0.858000
v 0.457816 0.277228 -0.858000
v 0.751270 -0.529029 -0.000000
v 0.164363 1.083484 -0.000000
v 0.457816 0.277227 -0.000000
v -2.176756 -1.339085 0.617760
v -2.599329 -0.178076 -0.617760
v -2.599329 -0.178076 0.617760
v -2.388043 -0.758581 -0.858000
v -2.388043 -0.758581 0.858000
v -2.681496 0.047676 0.000000
v -2.094590 -1.564837 0.000000
v -2.250053 -1.365763 0.617760
v -2.672626 -0.204754 -0.617760
v -2.672626 -0.204754 0.617760
v -2.461339 -0.785258 -0.858000
v -2.461339 -0.785258 0.858000
v -2.754793 0.020998 0.000000
v -2.167886 -1.591515 0.000000
v -2.461339 -0.785258 0.000000
v 1.958904 1.232025 -0.505440
v 1.958904 -1.295175 -0.505440
v 1.958904 1.232025 0.505440
v 1.958904 -1.295175 0.505440
v 0.948023 1.232025 -0.505440
v 0.948024 -1.295175 -0.505440
v 0.948024 1.232025 0.505440
v 0.948024 -1.295175 0.505440
v 1.453464 -1.295175 -0.702000
v 1.453464 1.232025 0.702000
v 1.453464 -1.295175 0.702000
v 1.453464 1.232025 -0.702000
v 0.751464 -1.295175 -0.000000
v 2.155463 1.232025 -0.000000
v 0.751464 1.232025 -0.000000
v 2.155464 -1.295175 -0.000000
v 2.071225 -1.593675 -0.617760
v 2.071224 1.528425 -0.617760
v 2.071223 1.450425 -0.617760
v 2.071223 1.450425 0.617760
v 0.835704 1.450425 -0.617760
v 0.835704 1.450425 0.617760
v 1.453464 1.450425 0.858000
v 1.453464 1.450425 -0.858000
v 2.311464 1.450425 -0.000000
v 0.595464 1.450425 -0.000000
v 2.071223 -1.515675 -0.617760
v 2.071224 1.528425 0.617760
v 0.835704 1.528425 -0.617760
v 0.835705 1.528425 0.617760
v 1.453463 1.528425 0.858000
v 1.453463 1.528425 -0.858000
v 2.311464 1.528425 -0.000000
v 0.595464 1.528425 -0.000000
v 1.453463 1.528425 -0.000000
v 2.071224 -1.515675 0.617760
v 0.835704 -1.515675 -0.617760
v 0.835704 -1.515675 0.617760
v 1.453464 -1.515675 -0.858000
v 1.453464 -1.515675 0.858000
v 0.595464 -1.515675 -0.000000
v 2.311464 -1.515675 -0.000000
v 2.071225 -1.593675 0.617760
v 0.835704 -1.593675 -0.617760
v 0.835704 -1.593675 0.617760
v 1.453464 -1.593676 -0.858000
v 1.453464 -1.593676 0.858000
v 0.595464 -1.593676 -0.000000
v 2.311464 -1.593675 -0.000000
v 1.453464 -1.593676 -0.000000
vn -0.7861 0.5395 0.3017
vn -0.1240 0.3406 0.9320
vn -0.3188 0.8758 -0.3624
vn 0.4427 0.4757 0.7601
vn 0.3188 -0.8758 0.3624
vn 0.1240 -0.3406 -0.9320
vn -0.1240 0.3406 -0.9320
vn 0.2838 0.9122 -0.2956
vn 0.1240 -0.3406 0.9320
vn -0.4175 -0.4730 0.7758
vn -0.6239 0.0940 -0.7758
vn 0.8038 -0.5163 -0.2956
vn 0.3188 -0.8758 -0.3624
vn 0.2838 0.9122 0.2956
vn -0.3188 0.8758 0.3624
vn -0.6239 0.0940 0.7758
vn -0.7861 0.5395 -0.3017
vn -0.2554 -0.9186 0.3017
vn -0.2554 -0.9186 -0.3017
vn -0.4175 -0.4730 -0.7758
vn 0.9397 0.3420 -0.0000
vn 0.8038 -0.5163 0.2956
vn 0.6449 -0.0798 -0.7601
vn 0.4427 0.4757 -0.7601
vn 0.6449 -0.0798 0.7601
vn -0.9397 -0.3420 -0.0000
vn -0.7758 -0.5542 0.3017
vn -0.3624 -0.0000 0.9320
vn -0.9320 -0.0000 -0.3624
vn -0.3026 0.5505 0.7781
vn 0.9320 -0.0000 0.3624
vn 0.3624 -0.0000 -0.9320
vn -0.3624 -0.0000 -0.9320
vn -0.7781 0.5505 -0.3026
vn 0.3624 -0.0000 0.9320
vn 0.3017 -0.5542 0.7758
vn -0.3017 -0.5542 -0.7758
vn 0.7781 0.5505 -0.3026
vn 0.9320 -0.0000 -0.3624
vn -0.7781 0.5505 0.3026
vn -0.9320 -0.0000 0.3624
vn -0.3017 -0.5542 0.7758
vn -0.7758 -0.5542 -0.3017
vn 0.7758 -0.5542 0.3017
vn 0.7758 -0.5542 -0.3017
vn 0.3017 -0.5542 -0.7758
vn -0.0000 1.0000 -0.0000
vn 0.7781 0.5505 0.3026
vn 0.3026 0.5505 -0.7781
vn -0.3026 0.5505 -0.7781
vn 0.3026 0.5505 0.7781
vn -0.0000 -1.0000 -0.0000
vt 0.625000 0.500000
vt 0.375000 0.500000
vt 0.625000 0.750000
vt 0.375000 0.750000
vt 0.625000 0.250000
vt 0.375000 0.250000
vt 0.625000 0.000000
vt 0.625000 1.000000
vt 0.375000 1.000000
vt 0.375000 0.000000
vt 0.375000 0.375000
vt 0.625000 0.875000
vt 0.375000 0.875000
vt 0.625000 0.375000
vt 0.375000 0.125000
vt 0.625000 0.625000
vt 0.625000 0.125000
vt 0.375000 0.625000
vt 0.375000 0.500000
vt 0.625000 0.500000
vt 0.625000 0.500000
vt 0.625000 0.750000
vt 0.625000 0.250000
vt 0.625000 1.000000
vt 0.625000 0.000000
vt 0.625000 0.875000
vt 0.625000 0.375000
vt 0.625000 0.625000
vt 0.625000 0.125000
vt 0.375000 0.500000
vt 0.625000 0.750000
vt 0.875000 0.500000
vt 0.625000 0.250000
vt 0.875000 0.750000
vt 0.625000 0.000000
vt 0.625000 1.000000
vt 0.750000 0.750000
vt 0.625000 0.875000
vt 0.625000 0.375000
vt 0.750000 0.500000
vt 0.625000 0.625000
vt 0.875000 0.625000
vt 0.625000 0.125000
vt 0.750000 0.625000
vt 0.375000 0.750000
vt 0.375000 0.250000
vt 0.375000 0.000000
vt 0.375000 1.000000
vt 0.375000 0.375000
vt 0.375000 0.875000
vt 0.375000 0.125000
vt 0.375000 0.625000
vt 0.375000 0.750000
vt 0.125000 0.500000
vt 0.375000 0.250000
vt 0.375000 0.000000
vt 0.125000 0.750000
vt 0.375000 1.000000
vt 0.250000 0.500000
vt 0.375000 0.375000
vt 0.250000 0.750000
vt 0.375000 0.875000
vt 0.125000 0.625000
vt 0.375000 0.125000
vt 0.375000 0.625000
vt 0.250000 0.625000
vt 0.625000 0.500000
vt 0.375000 0.500000
vt 0.625000 0.750000
vt 0.375000 0.750000
vt 0.625000 0.250000
vt 0.375000 0.250000
vt 0.625000 0.000000
vt 0.625000 1.000000
vt 0.375000 1.000000
vt 0.375000 0.000000
vt 0.375000 0.375000
vt 0.625000 0.875000
vt 0.375000 0.875000
vt 0.625000 0.375000
vt 0.375000 0.125000
vt 0.625000 0.625000
vt 0.625000 0.125000
vt 0.375000 0.625000
vt 0.375000 0.500000
vt 0.625000 0.500000
vt 0.625000 0.500000
vt 0.625000 0.750000
vt 0.625000 0.250000
vt 0.625000 0.000000
vt 0.625000 1.000000
vt 0.625000 0.875000
vt 0.625000 0.375000
vt 0.625000 0.625000
vt 0.625000 0.125000
vt 0.375000 0.500000
vt 0.625000 0.750000
vt 0.625000 0.250000
vt 0.875000 0.500000
vt 0.625000 1.000000
vt 0.875000 0.750000
vt 0.625000 0.000000
vt 0.750000 0.750000
vt 0.625000 0.875000
vt 0.625000 0.375000
vt 0.750000 0.500000
vt 0.625000 0.625000
vt 0.875000 0.625000
vt 0.625000 0.125000
vt 0.750000 0.625000
vt 0.375000 0.750000
vt 0.375000 0.250000
vt 0.375000 0.000000
vt 0.375000 1.000000
vt 0.375000 0.375000
vt 0.375000 0.875000
vt 0.375000 0.125000
vt 0.375000 0.625000
vt 0.375000 0.750000
vt 0.125000 0.500000
vt 0.375000 0.250000
vt 0.375000 0.000000
vt 0.125000 0.750000
vt 0.375000 1.000000
vt 0.250000 0.500000
vt 0.375000 0.375000
vt 0.375000 0.875000
vt 0.250000 0.750000
vt 0.125000 0.625000
vt 0.375000 0.125000
vt 0.375000 0.625000
vt 0.250000 0.625000
s 0
usemtl Material.001
f 7/7/1 26/29/1 15/17/1
f 10/12/2 8/9/2 11/13/2
f 15/17/3 6/6/3 13/15/3
f 8/9/4 40/50/4 11/13/4
f 14/16/5 4/4/5 16/18/5
f 12/14/6 2/2/6 9/11/6
f 5/5/7 9/11/7 6/6/7
f 6/6/8 41/51/8 13/15/8
f 3/3/9 11/13/9 4/4/9
f 3/3/10 23/26/10 10/12/10
f 5/5/11 24/27/11 12/14/11
f 2/2/12 42/52/12 27/30/12
f 1/1/13 16/18/13 2/2/13
f 8/10/14 41/51/14 38/47/14
f 7/7/15 13/15/15 8/10/15
f 7/8/16 23/26/16 22/24/16
f 25/28/5 28/31/5 20/22/5
f 24/27/6 18/20/6 19/21/6
f 21/23/7 32/39/7 24/27/7
f 19/21/13 33/41/13 25/28/13
f 5/5/17 26/29/17 21/23/17
f 3/3/18 25/28/18 20/22/18
f 1/1/19 25/28/19 14/16/19
f 1/1/20 24/27/20 19/21/20
f 35/44/21 30/34/21 31/37/21
f 35/44/21 28/31/21 33/41/21
f 18/20/21 35/44/21 33/41/21
f 29/32/21 35/44/21 32/40/21
f 22/25/15 34/43/15 26/29/15
f 20/22/9 31/38/9 23/26/9
f 26/29/3 29/33/3 21/23/3
f 23/26/2 30/36/2 22/24/2
f 41/51/15 45/56/15 38/47/15
f 40/50/9 43/53/9 36/45/9
f 27/30/6 46/60/6 39/49/6
f 36/45/5 49/65/5 42/52/5
f 4/4/22 42/52/22 16/18/22
f 2/2/23 39/49/23 9/11/23
f 6/6/24 39/49/24 37/46/24
f 4/4/25 40/50/25 36/45/25
f 50/66/26 43/53/26 47/61/26
f 50/66/26 45/57/26 48/63/26
f 44/54/26 50/66/26 48/63/26
f 17/19/26 50/66/26 46/59/26
f 37/46/3 48/64/3 41/51/3
f 38/48/2 47/62/2 40/50/2
f 42/52/13 17/19/13 27/30/13
f 39/49/7 44/55/7 37/46/7
f 7/7/1 22/25/1 26/29/1
f 10/12/2 7/8/2 8/9/2
f 15/17/3 5/5/3 6/6/3
f 8/9/4 38/48/4 40/50/4
f 14/16/5 3/3/5 4/4/5
f 12/14/6 1/1/6 2/2/6
f 5/5/7 12/14/7 9/11/7
f 6/6/8 37/46/8 41/51/8
f 3/3/9 10/12/9 11/13/9
f 3/3/10 20/22/10 23/26/10
f 5/5/11 21/23/11 24/27/11
f 2/2/12 16/18/12 42/52/12
f 1/1/13 14/16/13 16/18/13
f 8/10/14 13/15/14 41/51/14
f 7/7/15 15/17/15 13/15/15
f 7/8/16 10/12/16 23/26/16
f 25/28/5 33/41/5 28/31/5
f 24/27/6 32/39/6 18/20/6
f 21/23/7 29/33/7 32/39/7
f 19/21/13 18/20/13 33/41/13
f 5/5/17 15/17/17 26/29/17
f 3/3/18 14/16/18 25/28/18
f 1/1/19 19/21/19 25/28/19
f 1/1/20 12/14/20 24/27/20
f 35/44/21 34/42/21 30/34/21
f 35/44/21 31/37/21 28/31/21
f 18/20/21 32/40/21 35/44/21
f 29/32/21 34/42/21 35/44/21
f 22/25/15 30/35/15 34/43/15
f 20/22/9 28/31/9 31/38/9
f 26/29/3 34/43/3 29/33/3
f 23/26/2 31/38/2 30/36/2
f 41/51/15 48/64/15 45/56/15
f 40/50/9 47/62/9 43/53/9
f 27/30/6 17/19/6 46/60/6
f 36/45/5 43/53/5 49/65/5
f 4/4/22 36/45/22 42/52/22
f 2/2/23 27/30/23 39/49/23
f 6/6/24 9/11/24 39/49/24
f 4/4/25 11/13/25 40/50/25
f 50/66/26 49/65/26 43/53/26
f 50/66/26 47/61/26 45/57/26
f 44/54/26 46/59/26 50/66/26
f 17/19/26 49/65/26 50/66/26
f 37/46/3 44/55/3 48/64/3
f 38/48/2 45/58/2 47/62/2
f 42/52/13 49/65/13 17/19/13
f 39/49/7 46/60/7 44/55/7
usemtl Material
f 57/73/27 76/95/27 65/83/27
f 60/78/28 58/75/28 61/79/28
f 63/81/29 55/71/29 56/72/29
f 58/75/30 90/116/30 61/79/30
f 64/82/31 54/70/31 66/84/31
f 62/80/32 52/68/32 59/77/32
f 56/72/33 62/80/33 59/77/33
f 56/72/34 91/117/34 63/81/34
f 53/69/35 61/79/35 54/70/35
f 53/69/36 73/92/36 60/78/36
f 55/71/37 74/93/37 62/80/37
f 52/68/38 92/118/38 77/96/38
f 52/68/39 64/82/39 66/84/39
f 58/76/40 91/117/40 88/113/40
f 57/73/41 63/81/41 58/76/41
f 57/74/42 73/92/42 72/91/42
f 75/94/31 78/97/31 70/88/31
f 74/93/32 68/86/32 69/87/32
f 71/89/33 82/105/33 74/93/33
f 75/94/39 68/86/39 83/107/39
f 55/71/43 76/95/43 71/89/43
f 53/69/44 75/94/44 70/88/44
f 51/67/45 75/94/45 64/82/45
f 51/67/46 74/93/46 69/87/46
f 85/110/47 80/101/47 81/103/47
f 85/110/47 78/97/47 83/107/47
f 68/86/47 85/110/47 83/107/47
f 79/99/47 85/110/47 82/106/47
f 72/90/41 84/109/41 76/95/41
f 73/92/35 78/97/35 81/104/35
f 71/89/29 84/109/29 79/98/29
f 72/91/28 81/104/28 80/100/28
f 91/117/41 95/122/41 88/113/41
f 86/111/35 97/127/35 93/119/35
f 77/96/32 96/126/32 89/115/32
f 92/118/31 93/119/31 99/131/31
f 54/70/48 92/118/48 66/84/48
f 52/68/49 89/115/49 59/77/49
f 56/72/50 89/115/50 87/112/50
f 54/70/51 90/116/51 86/111/51
f 100/132/52 93/119/52 97/128/52
f 100/132/52 95/123/52 98/129/52
f 94/120/52 100/132/52 98/129/52
f 67/85/52 100/132/52 96/125/52
f 91/117/29 94/121/29 98/130/29
f 90/116/28 95/124/28 97/127/28
f 92/118/39 67/85/39 77/96/39
f 89/115/33 94/121/33 87/112/33
f 57/73/27 72/90/27 76/95/27
f 60/78/28 57/74/28 58/75/28
f 63/81/29 65/83/29 55/71/29
f 58/75/30 88/114/30 90/116/30
f 64/82/31 53/69/31 54/70/31
f 62/80/32 51/67/32 52/68/32
f 56/72/33 55/71/33 62/80/33
f 56/72/34 87/112/34 91/117/34
f 53/69/35 60/78/35 61/79/35
f 53/69/36 70/88/36 73/92/36
f 55/71/37 71/89/37 74/93/37
f 52/68/38 66/84/38 92/118/38
f 52/68/39 51/67/39 64/82/39
f 58/76/40 63/81/40 91/117/40
f 57/73/41 65/83/41 63/81/41
f 57/74/42 60/78/42 73/92/42
f 75/94/31 83/107/31 78/97/31
f 74/93/32 82/105/32 68/86/32
f 71/89/33 79/98/33 82/105/33
f 75/94/39 69/87/39 68/86/39
f 55/71/43 65/83/43 76/95/43
f 53/69/44 64/82/44 75/94/44
f 51/67/45 69/87/45 75/94/45
f 51/67/46 62/80/46 74/93/46
f 85/110/47 84/108/47 80/101/47
f 85/110/47 81/103/47 78/97/47
f 68/86/47 82/106/47 85/110/47
f 79/99/47 84/108/47 85/110/47
f 72/90/41 80/102/41 84/109/41
f 73/92/35 70/88/35 78/97/35
f 71/89/29 76/95/29 84/109/29
f 72/91/28 73/92/28 81/104/28
f 91/117/41 98/130/41 95/122/41
f 86/111/35 90/116/35 97/127/35
f 77/96/32 67/85/32 96/126/32
f 92/118/31 86/111/31 93/119/31
f 54/70/48 86/111/48 92/118/48
f 52/68/49 77/96/49 89/115/49
f 56/72/50 59/77/50 89/115/50
f 54/70/51 61/79/51 90/116/51
f 100/132/52 99/131/52 93/119/52
f 100/132/52 97/128/52 95/123/52
f 94/120/52 96/125/52 100/132/52
f 67/85/52 99/131/52 100/132/52
f 91/117/29 87/112/29 94/121/29
f 90/116/28 88/114/28 95/124/28
f 92/118/39 99/131/39 67/85/39
f 89/115/33 96/126/33 94/121/33
